#!OML:ASF H:\Dans Jumps\Project 1\Capture day 1\Session 1\subject.ASF
:FULLY-SPECIFIED
:DEGREES
822
root -0.145753 15.8545 1.32967 8.9129 -3.35978 -4.58468
lowerback 10.0306 -0.658658 2.56214
upperback 7.99846 -0.738548 2.50121
thorax 2.71723 -0.335952 1.21209
lowerneck -12.686 6.22468 0.365906
upperneck -4.12999 8.30392 -7.41491
head 1.19692 4.01527 -2.00492
rclavicle -3.57812e-015 -1.15295e-014
rhumerus -19.9593 5.09616 -85.1125
rradius 52.3415
rwrist 25.8927
rhand -28.7661 -20.9712
rfingers 7.12502
rthumb -2.12577 -50.9403
lclavicle -3.57812e-015 -1.15295e-014
lhumerus -17.1852 5.05225 75.3704
lradius 40.1617
lwrist 12.9896
lhand -32.9863 -16.265
lfingers 7.12502
lthumb -6.20101 13.6242
rfemur -43.62 -6.85877 26.8062
rtibia 62.4898
rfoot -28.2674 -7.78405
rtoes 3.44346
lfemur -40.6419 -0.912121 -7.52661
ltibia 61.5003
lfoot -21.4452 15.8512
ltoes -12.4305
823
root -0.174289 15.8946 1.31986 9.06288 -3.00079 -4.54176
lowerback 10.1389 -0.665706 2.58853
upperback 7.97578 -0.738322 2.46502
thorax 2.63335 -0.333706 1.1609
lowerneck -12.8452 6.1127 0.281292
upperneck -4.26198 8.15791 -7.19818
head 1.15886 3.9485 -1.92616
rclavicle -7.40473e-015 -5.1684e-015
rhumerus -19.9705 4.48542 -85.1891
rradius 51.6571
rwrist 26.3217
rhand -28.9737 -20.8109
rfingers 7.12502
rthumb -2.32631 -50.778
lclavicle -7.40473e-015 -5.1684e-015
lhumerus -17.5193 5.64002 75.8416
lradius 38.744
lwrist 11.9212
lhand -32.7876 -15.7336
lfingers 7.12502
lthumb -6.00916 14.1612
rfemur -43.5032 -6.65655 26.8437
rtibia 61.9508
rfoot -27.6244 -7.90359
rtoes 4.98527
lfemur -40.6555 -1.50801 -7.39439
ltibia 60.9426
lfoot -20.9088 16.0711
ltoes -12.0852
824
root -0.205821 15.9368 1.30989 9.22935 -2.66342 -4.45069
lowerback 10.1934 -0.641933 2.52467
upperback 7.95786 -0.706474 2.42595
thorax 2.58434 -0.319134 1.15422
lowerneck -12.9649 5.96987 0.25339
upperneck -4.41197 7.96267 -7.03439
head 1.11267 3.85655 -1.87853
rclavicle 2.48481e-016 2.78299e-015
rhumerus -20.0567 3.86872 -85.2312
rradius 51.045
rwrist 26.7107
rhand -29.4259 -20.6577
rfingers 7.12502
rthumb -2.76303 -50.6196
lclavicle 2.48481e-016 2.78299e-015
lhumerus -17.7722 6.14597 76.2682
lradius 37.2518
lwrist 10.5448
lhand -32.6376 -15.3597
lfingers 7.12502
lthumb -5.86438 14.5391
rfemur -43.4185 -6.48837 26.8509
rtibia 61.3912
rfoot -27.0652 -8.18035
rtoes 6.20062
lfemur -40.6606 -2.1295 -7.30348
ltibia 60.3394
lfoot -20.3859 16.3253
ltoes -11.9641
825
root -0.237268 15.9831 1.30273 9.3543 -2.27176 -4.3513
lowerback 10.2797 -0.633568 2.49099
upperback 7.9401 -0.691237 2.37681
thorax 2.5179 -0.311349 1.12177
lowerneck -13.0226 5.82425 0.175476
upperneck -4.62474 7.76635 -6.82395
head 1.03097 3.7685 -1.80983
rclavicle -6.60959e-015 5.06901e-015
rhumerus -20.1902 3.21021 -85.2681
rradius 50.4432
rwrist 27.0125
rhand -29.3793 -20.7264
rfingers 7.12502
rthumb -2.71805 -50.6889
lclavicle -6.60959e-015 5.06901e-015
lhumerus -17.9969 6.58679 76.6578
lradius 35.6755
lwrist 9.12766
lhand -32.6682 -15.0904
lfingers 7.12502
lthumb -5.8939 14.8076
rfemur -43.2345 -6.42773 26.84
rtibia 60.7978
rfoot -26.9166 -8.35861
rtoes 6.4678
lfemur -40.5921 -2.8547 -7.20913
ltibia 59.6976
lfoot -19.8708 16.5712
ltoes -11.6812
826
root -0.26917 16.0296 1.29644 9.46294 -1.84581 -4.27533
lowerback 10.3261 -0.624102 2.47923
upperback 7.96711 -0.676458 2.34376
thorax 2.52073 -0.302751 1.09337
lowerneck -13.1206 5.66406 0.19191
upperneck -4.84203 7.5396 -6.71722
head 0.964139 3.66108 -1.79136
rclavicle -1.07344e-014 -2.38542e-014
rhumerus -20.156 2.5616 -85.2554
rradius 49.7337
rwrist 27.3893
rhand -29.8552 -20.2203
rfingers 7.12502
rthumb -3.17763 -50.1764
lclavicle -1.07344e-014 -2.38542e-014
lhumerus -18.1706 7.11245 77.0181
lradius 34.1717
lwrist 7.55251
lhand -32.5899 -14.6415
lfingers 7.12502
lthumb -5.81825 15.2586
rfemur -43.0033 -6.41232 26.8469
rtibia 60.1698
rfoot -26.6567 -8.34432
rtoes 7.2557
lfemur -40.5036 -3.67394 -7.06972
ltibia 59.0586
lfoot -19.3507 16.8466
ltoes -11.2396
827
root -0.301338 16.0777 1.291 9.56986 -1.38985 -4.22623
lowerback 10.3464 -0.609463 2.47379
upperback 8.00194 -0.656079 2.34778
thorax 2.54655 -0.291884 1.09923
lowerneck -13.1581 5.48021 0.21342
upperneck -5.13277 7.27656 -6.68771
head 0.866328 3.53678 -1.80292
rclavicle 1.98785e-015 1.45113e-014
rhumerus -20.2461 2.0383 -85.1777
rradius 49.2172
rwrist 27.4942
rhand -29.8375 -20.2801
rfingers 7.12502
rthumb -3.16051 -50.2364
lclavicle 1.98785e-015 1.45113e-014
lhumerus -18.3091 7.69964 77.4176
lradius 32.7098
lwrist 6.15823
lhand -32.3909 -14.5847
lfingers 7.12502
lthumb -5.62618 15.3206
rfemur -42.7507 -6.47201 26.8899
rtibia 59.5046
rfoot -26.4584 -8.28335
rtoes 7.65361
lfemur -40.4128 -4.55355 -6.89445
ltibia 58.4198
lfoot -18.864 17.1561
ltoes -10.6461
828
root -0.333061 16.1238 1.28672 9.70223 -0.9238 -4.32446
lowerback 10.3146 -0.58143 2.61679
upperback 8.03315 -0.609801 2.39275
thorax 2.59671 -0.262767 1.062
lowerneck -13.1734 5.28794 0.169132
upperneck -5.4193 7.01157 -6.5793
head 0.7597 3.41413 -1.77803
rclavicle 1.2921e-015 -2.70347e-014
rhumerus -20.3005 1.5705 -85.0731
rradius 48.6507
rwrist 27.4801
rhand -29.8481 -20.3238
rfingers 7.12502
rthumb -3.17076 -50.2799
lclavicle 1.2921e-015 -2.70347e-014
lhumerus -18.4223 8.28445 77.7819
lradius 31.2617
lwrist 4.74614
lhand -32.1405 -13.6853
lfingers 7.12502
lthumb -5.38435 16.2263
rfemur -42.489 -6.54402 27.0938
rtibia 58.7903
rfoot -26.1493 -8.23866
rtoes 8.26277
lfemur -40.3868 -5.42581 -6.54198
ltibia 57.8138
lfoot -18.3141 17.4617
ltoes -10.1081
829
root -0.365321 16.1713 1.28385 9.8061 -0.435486 -4.36634
lowerback 10.2719 -0.552084 2.68553
upperback 8.10129 -0.569118 2.44083
thorax 2.69247 -0.23914 1.07009
lowerneck -13.3444 5.08695 0.138246
upperneck -5.5978 6.74149 -6.47599
head 0.715411 3.28299 -1.75223
rclavicle 2.08724e-015 -3.97569e-016
rhumerus -20.3796 1.15594 -84.9277
rradius 48.2061
rwrist 27.3635
rhand -29.8473 -20.3211
rfingers 7.12502
rthumb -3.16997 -50.2773
lclavicle 2.08724e-015 -3.97569e-016
lhumerus -18.4387 8.83854 78.1514
lradius 29.8397
lwrist 3.71253
lhand -31.8147 -13.2938
lfingers 7.12502
lthumb -5.06982 16.6256
rfemur -42.2011 -6.70783 27.2412
rtibia 58.0543
rfoot -25.7619 -8.12782
rtoes 8.84673
lfemur -40.3435 -6.36706 -6.23692
ltibia 57.2147
lfoot -17.7906 17.7793
ltoes -9.39347
830
root -0.396986 16.2228 1.28547 9.91434 0.0129732 -4.43502
lowerback 10.1865 -0.504394 2.75847
upperback 8.15405 -0.505885 2.50638
thorax 2.79556 -0.204514 1.09205
lowerneck -13.4084 4.91795 0.173235
upperneck -5.87969 6.49847 -6.47413
head 0.628097 3.167 -1.77251
rclavicle 8.05078e-015 5.36719e-015
rhumerus -20.4044 0.856343 -84.739
rradius 47.6211
rwrist 27.2412
rhand -29.7255 -20.4671
rfingers 7.12502
rthumb -3.0524 -50.425
lclavicle 8.05078e-015 5.36719e-015
lhumerus -18.5127 9.39703 78.5254
lradius 28.491
lwrist 2.95546
lhand -31.6029 -13.1121
lfingers 7.12502
lthumb -4.86532 16.8121
rfemur -41.8947 -6.93676 27.4243
rtibia 57.2727
rfoot -25.2798 -7.956
rtoes 9.51775
lfemur -40.2881 -7.28373 -5.91381
ltibia 56.6393
lfoot -17.2126 18.1366
ltoes -8.72539
831
root -0.429855 16.2699 1.2832 10.0321 0.452178 -4.48471
lowerback 10.1781 -0.44263 2.77125
upperback 8.15838 -0.423049 2.57346
thorax 2.80544 -0.163571 1.14837
lowerneck -13.4099 4.68163 0.0961752
upperneck -6.11233 6.18342 -6.30955
head 0.532906 3.0191 -1.72519
rclavicle -1.49089e-015 -1.23246e-014
rhumerus -20.5134 0.675857 -84.5641
rradius 47.1375
rwrist 27.1275
rhand -29.763 -20.696
rfingers 7.12502
rthumb -3.08854 -50.6534
lclavicle -1.49089e-015 -1.23246e-014
lhumerus -18.6612 9.74553 78.9006
lradius 27.2309
lwrist 2.57784
lhand -31.4019 -13.3182
lfingers 7.12502
lthumb -4.67126 16.6103
rfemur -41.64 -7.2017 27.6094
rtibia 56.4939
rfoot -24.7899 -7.79162
rtoes 9.96326
lfemur -40.2985 -8.11977 -5.60994
ltibia 56.0973
lfoot -16.5954 18.4258
ltoes -7.98525
832
root -0.46505 16.3182 1.28325 10.1734 0.879004 -4.60962
lowerback 10.0734 -0.361757 2.8306
upperback 8.19074 -0.31775 2.65578
thorax 2.89759 -0.109127 1.19253
lowerneck -13.4802 4.46097 0.0461823
upperneck -6.32709 5.88835 -6.14741
head 0.457545 2.87898 -1.68042
rclavicle -7.95139e-016 -7.95139e-015
rhumerus -20.591 0.524984 -84.3919
rradius 46.7128
rwrist 26.8161
rhand -29.4736 -21.1163
rfingers 7.12502
rthumb -2.80906 -51.0776
lclavicle -7.95139e-016 -7.95139e-015
lhumerus -18.7884 10.1809 79.2294
lradius 26.1815
lwrist 1.88527
lhand -31.1705 -12.6037
lfingers 7.12502
lthumb -4.44775 17.3296
rfemur -41.385 -7.47353 27.894
rtibia 55.6877
rfoot -24.3116 -7.6731
rtoes 10.4577
lfemur -40.3638 -8.81006 -5.22609
ltibia 55.5926
lfoot -15.9465 18.5692
ltoes -7.34658
833
root -0.497444 16.368 1.28773 10.2907 1.25059 -4.65613
lowerback 9.9619 -0.268582 2.81508
upperback 8.21984 -0.201563 2.71488
thorax 2.98956 -0.0519684 1.25405
lowerneck -13.6154 4.22592 -0.0817628
upperneck -6.45217 5.59149 -5.89125
head 0.416197 2.73755 -1.58986
rclavicle -8.24956e-015 -3.69739e-014
rhumerus -20.6546 0.408038 -84.1677
rradius 46.2284
rwrist 26.7775
rhand -29.4819 -21.0496
rfingers 7.12502
rthumb -2.81713 -51.0107
lclavicle -8.24956e-015 -3.69739e-014
lhumerus -18.9063 10.5387 79.5332
lradius 25.0278
lwrist 1.10131
lhand -30.5646 -11.7849
lfingers 7.12502
lthumb -3.86268 18.1599
rfemur -41.0847 -7.92146 28.1084
rtibia 54.8807
rfoot -23.8691 -7.48372
rtoes 10.4265
lfemur -40.363 -9.39102 -4.98337
ltibia 55.1379
lfoot -15.3588 18.6568
ltoes -6.82969
834
root -0.532034 16.4182 1.28942 10.4508 1.60351 -4.68592
lowerback 9.87789 -0.152722 2.75219
upperback 8.1986 -0.0551518 2.76092
thorax 3.01243 0.0178733 1.32642
lowerneck -13.7105 3.99041 -0.122455
upperneck -6.56175 5.28231 -5.68571
head 0.378966 2.58766 -1.53164
rclavicle 2.78299e-015 1.51076e-014
rhumerus -20.8023 0.389172 -83.9455
rradius 45.7937
rwrist 26.6872
rhand -29.4081 -21.2538
rfingers 7.12502
rthumb -2.74583 -51.2159
lclavicle 2.78299e-015 1.51076e-014
lhumerus -19.1659 10.7357 79.7985
lradius 24.1282
lwrist 0.310154
lhand -30.3294 -11.6168
lfingers 7.12502
lthumb -3.63554 18.3319
rfemur -40.8264 -8.42975 28.3364
rtibia 54.0337
rfoot -23.4339 -7.14547
rtoes 11.1297
lfemur -40.4543 -9.75294 -4.78828
ltibia 54.7305
lfoot -14.7357 18.6014
ltoes -6.47095
835
root -0.567332 16.4683 1.28989 10.6067 1.87839 -4.75765
lowerback 9.84768 -0.0128383 2.69024
upperback 8.14398 0.126534 2.81261
thorax 2.96986 0.104582 1.40155
lowerneck -13.7432 3.76044 -0.158134
upperneck -6.69429 4.97847 -5.4654
head 0.324748 2.44186 -1.47045
rclavicle 6.75868e-015 -6.95746e-015
rhumerus -20.9299 0.351525 -83.7092
rradius 45.2663
rwrist 26.8617
rhand -29.561 -20.9767
rfingers 7.12502
rthumb -2.89348 -50.9368
lclavicle 6.75868e-015 -6.95746e-015
lhumerus -19.488 10.931 80.0259
lradius 23.3146
lwrist -0.565261
lhand -29.7481 -11.0538
lfingers 7.12502
lthumb -3.07421 18.9037
rfemur -40.5564 -8.96308 28.6348
rtibia 53.1446
rfoot -23.0092 -6.79378
rtoes 11.2168
lfemur -40.5491 -9.8669 -4.5981
ltibia 54.3618
lfoot -14.0334 18.3871
ltoes -5.81465
836
root -0.604584 16.5244 1.29044 10.8163 2.08484 -4.91205
lowerback 9.741 0.153593 2.64479
upperback 8.09561 0.339957 2.88808
thorax 2.975 0.207431 1.49036
lowerneck -13.8381 3.52379 -0.159048
upperneck -6.78604 4.66342 -5.28609
head 0.296789 2.28717 -1.42738
rclavicle -1.59028e-015 -3.57812e-014
rhumerus -20.9404 0.339192 -83.4947
rradius 44.7105
rwrist 27.0682
rhand -29.3807 -21.1795
rfingers 7.12502
rthumb -2.71936 -51.1419
lclavicle -1.59028e-015 -3.57812e-014
lhumerus -19.8038 10.8824 80.2803
lradius 22.6181
lwrist -1.28037
lhand -29.561 -10.9888
lfingers 7.12502
lthumb -2.89349 18.9713
rfemur -40.3083 -9.47263 29.054
rtibia 52.1739
rfoot -22.6395 -6.36785
rtoes 10.9614
lfemur -40.7473 -9.73458 -4.34201
ltibia 54.0335
lfoot -13.4159 17.9541
ltoes -5.35994
